<svg width="48" height="48" viewBox="0 0 48 48" fill="none" xmlns="http://www.w3.org/2000/svg">
<path d="M40.009 20.5533L25.008 6.9155C24.7319 6.66447 24.3721 6.52538 23.9989 6.52539C23.6257 6.5254 23.266 6.66452 22.9899 6.91557L7.9909 20.5533C7.83628 20.6939 7.71274 20.8653 7.6282 21.0564C7.54367 21.2475 7.5 21.4542 7.5 21.6632V38.9997C7.5 39.3975 7.65804 39.779 7.93934 40.0603C8.22064 40.3416 8.60218 40.4997 9 40.4997H39C39.3978 40.4997 39.7794 40.3416 40.0607 40.0603C40.342 39.779 40.5 39.3975 40.5 38.9997V21.6632C40.5 21.4542 40.4563 21.2475 40.3718 21.0564C40.2872 20.8653 40.1637 20.6939 40.009 20.5533Z" stroke="black" stroke-width="2" stroke-linecap="round" stroke-linejoin="round"/>
</svg>