<svg width="48" height="48" viewBox="0 0 48 48" fill="none" xmlns="http://www.w3.org/2000/svg">
<path d="M17.3393 23.4038C18.8952 26.5848 21.4737 29.1516 24.6618 30.693C24.8951 30.8035 25.1531 30.8514 25.4105 30.832C25.6678 30.8125 25.9157 
30.7263 26.1297 30.582L30.8239 27.4518C31.0315 27.3133 31.2704 27.2289 31.5188 27.206C31.7673 27.1832 32.0176 27.2227 32.2469 27.321L41.0289 
31.0847C41.3272 31.2114 41.5763 31.4317 41.7385 31.7123C41.9008 31.9929 41.9675 32.3186 41.9286 32.6404C41.651 34.8124 40.5912 36.8087 38.9477 
38.2556C37.3042 39.7026 35.1897 40.5008 33 40.5009C26.237 40.5009 19.751 37.8143 14.9688 33.0321C10.1866 28.25 7.5 21.7639 7.5 15.0009C7.50012 
12.8112 8.29836 10.6967 9.74528 9.05318C11.1922 7.40968 13.1886 6.34993 15.3606 6.07235C15.6823 6.03341 16.0081 6.1001 16.2886 6.26237C16.5692 
6.42464 16.7895 6.6737 16.9162 6.97202L20.6832 15.7616C20.7806 15.989 20.8203 16.2369 20.7987 16.4833C20.7772 16.7297 20.695 16.967 20.5595 17.1739L17.4402 
21.9401C17.2982 22.1545 17.2143 22.4021 17.1966 22.6586C17.1789 22.9152 17.2281 23.1719 17.3393 23.4038V23.4038Z" 
stroke="black" stroke-width="2" stroke-linecap="round" stroke-linejoin="round"/>
</svg>